<svg width="60" height="61" viewBox="0 0 60 61" fill="none" xmlns="http://www.w3.org/2000/svg">
<rect width="60" height="60.08" rx="8" fill="#F3F6FF"/>
<g clip-path="url(#clip0_20005128_12737)">
<g clip-path="url(#clip1_20005128_12737)">
<path d="M38.531 32.493C39.135 32.493 39.625 32.983 39.625 33.587V34.9C39.625 35.504 39.135 35.994 38.531 35.994H36.015C35.411 35.994 34.921 35.504 34.921 34.9V33.588C34.921 32.984 35.411 32.494 36.015 32.494L38.531 32.493ZM41.812 30.524V27.243H18.188V35.986C18.1885 36.5661 18.4192 37.1224 18.8294 37.5326C19.2397 37.9428 19.7959 38.1735 20.376 38.174H39.626C40.2061 38.1735 40.7624 37.9428 41.1726 37.5326C41.5828 37.1224 41.8135 36.5661 41.814 35.986C41.814 35.382 42.304 34.892 42.908 34.892C43.512 34.892 44 35.382 44 35.986C43.9987 37.1459 43.5373 38.258 42.7171 39.0781C41.8969 39.8983 40.7849 40.3597 39.625 40.361H20.375C19.2151 40.3597 18.1031 39.8983 17.2829 39.0781C16.4627 38.258 16.0013 37.1459 16 35.986V24.174C16.0013 23.0141 16.4627 21.9021 17.2829 21.0819C18.1031 20.2617 19.2151 19.8003 20.375 19.799H39.625C40.7849 19.8003 41.8969 20.2617 42.7171 21.0819C43.5373 21.9021 43.9987 23.0141 44 24.174V30.524C44 31.128 43.51 31.618 42.906 31.618C42.302 31.618 41.812 31.128 41.812 30.524ZM41.812 25.055V24.173C41.8112 23.5932 41.5805 23.0374 41.1706 22.6274C40.7606 22.2175 40.2048 21.9868 39.625 21.986H20.375C19.795 21.9868 19.2391 22.2176 18.8291 22.6278C18.4191 23.038 18.1885 23.5941 18.188 24.174V25.056H41.813L41.812 25.055ZM21.469 29.43C20.865 29.43 20.375 29.92 20.375 30.524C20.375 31.128 20.865 31.618 21.469 31.618H30.492C31.096 31.618 31.586 31.128 31.586 30.524C31.586 29.92 31.096 29.43 30.492 29.43H21.469Z" fill="url(#paint0_linear_20005128_12737)"/>
</g>
</g>
<defs>
<linearGradient id="paint0_linear_20005128_12737" x1="16" y1="30.129" x2="44" y2="30.129" gradientUnits="userSpaceOnUse">
<stop stop-color="#6366F1"/>
<stop offset="0.5" stop-color="#8B5CF6"/>
<stop offset="1" stop-color="#D946EF"/>
</linearGradient>
<clipPath id="clip0_20005128_12737">
<rect width="28" height="28" fill="white" transform="translate(16 16.08)"/>
</clipPath>
<clipPath id="clip1_20005128_12737">
<rect width="28" height="28" fill="white" transform="translate(16 16.08)"/>
</clipPath>
</defs>
</svg>
