<svg width="267" height="651" viewBox="0 0 267 651" fill="none" xmlns="http://www.w3.org/2000/svg">
<path fill-rule="evenodd" clip-rule="evenodd" d="M0.166528 325.505C0.167614 232.501 0.161101 139.497 0.182812 46.4925C0.184983 39.2845 0.345643 32.0667 2.21821 25.0357C4.51305 16.4153 9.07995 9.44396 17.0685 5.03881C21.2457 2.73528 25.7822 1.59329 30.4913 1.2318C39.9518 0.505573 49.4025 1.15581 58.8511 1.67145C61.0233 1.78869 62.5377 3.60481 62.7265 5.68146C62.9512 8.14239 63.0283 10.6315 63.4734 13.0523C64.4373 18.2879 67.2598 22.3261 71.9482 24.9141C74.179 26.1451 76.6671 26.626 79.2105 26.7096C96.2634 27.2621 113.316 27.807 130.37 28.352C150.156 28.9827 169.945 29.6156 189.731 30.2343C192.9 30.3331 195.947 29.8956 198.709 28.1403C202.276 25.8748 204.471 22.6181 205.362 18.581C205.9 16.1439 206.059 13.6027 206.177 11.0972C206.285 8.81977 207.906 6.76049 210.42 6.84516C220.043 7.1654 229.723 6.81042 239.221 8.73727C251.68 11.2655 259.596 18.9414 263.491 30.8998C265.668 37.5867 266.061 44.5342 266.074 51.4871C266.131 84.4421 266.123 117.397 266.124 150.352C266.126 298.976 266.124 447.601 266.121 596.225C266.121 602.48 265.992 608.732 264.824 614.903C263.189 623.533 259.529 631.029 252.439 636.537C247.756 640.175 242.36 642.211 236.539 642.823C230.329 643.477 224.082 643.847 217.842 644.082C198.71 644.804 179.573 645.395 160.439 646.049C137.703 646.826 114.967 647.615 92.2328 648.403C75.5707 648.979 58.9108 649.588 42.2488 650.125C36.782 650.301 31.3076 650.317 25.907 649.192C14.271 646.771 6.8079 639.696 2.98569 628.594C1.27487 623.624 0.555154 618.456 0.443343 613.24C0.241431 603.952 0.177384 594.661 0.176298 585.369C0.157844 498.748 0.165443 412.126 0.166528 325.505Z" fill="#0B0F19"/>
</svg>
